<mxfile host="app.diagrams.net" modified="2024-02-08T17:28:33.031Z" agent="Mozilla/5.0 (Windows NT 10.0; Win64; x64) AppleWebKit/537.36 (KHTML, like Gecko) Chrome/121.0.0.0 Safari/537.36" version="23.1.2" etag="yU2UxgXyqEWHQhsaZjf6" type="device">
  <diagram id="Oz-DVc5mxjxMjYex-9EA" name="Page-1">
    <mxGraphModel dx="926" dy="457" grid="1" gridSize="10" guides="1" tooltips="1" connect="1" arrows="1" fold="1" page="1" pageScale="1" pageWidth="850" pageHeight="1100" math="0" shadow="0">
      <root>
        <mxCell id="0" />
        <mxCell id="1" parent="0" />
        <mxCell id="qkL3Egb8Z34TwKV7hk0--2" value="" style="rounded=0;whiteSpace=wrap;html=1;" vertex="1" parent="1">
          <mxGeometry x="190" y="80" width="455" height="830" as="geometry" />
        </mxCell>
        <mxCell id="qkL3Egb8Z34TwKV7hk0--3" value="Register / Login" style="ellipse;whiteSpace=wrap;html=1;" vertex="1" parent="1">
          <mxGeometry x="380" y="150" width="120" height="80" as="geometry" />
        </mxCell>
        <mxCell id="qkL3Egb8Z34TwKV7hk0--4" value="Accept / Decline Rides" style="ellipse;whiteSpace=wrap;html=1;" vertex="1" parent="1">
          <mxGeometry x="500" y="230" width="80" height="70" as="geometry" />
        </mxCell>
        <mxCell id="qkL3Egb8Z34TwKV7hk0--5" value="Request Rides" style="ellipse;whiteSpace=wrap;html=1;" vertex="1" parent="1">
          <mxGeometry x="250" y="230" width="80" height="50" as="geometry" />
        </mxCell>
        <mxCell id="qkL3Egb8Z34TwKV7hk0--6" value="Start Trip" style="ellipse;whiteSpace=wrap;html=1;" vertex="1" parent="1">
          <mxGeometry x="400" y="300" width="80" height="60" as="geometry" />
        </mxCell>
        <mxCell id="qkL3Egb8Z34TwKV7hk0--7" value="Location Tracking" style="ellipse;whiteSpace=wrap;html=1;" vertex="1" parent="1">
          <mxGeometry x="395" y="370" width="90" height="60" as="geometry" />
        </mxCell>
        <mxCell id="qkL3Egb8Z34TwKV7hk0--8" value="End Trip" style="ellipse;whiteSpace=wrap;html=1;" vertex="1" parent="1">
          <mxGeometry x="395" y="440" width="90" height="60" as="geometry" />
        </mxCell>
        <mxCell id="qkL3Egb8Z34TwKV7hk0--9" value="Ride History" style="ellipse;whiteSpace=wrap;html=1;" vertex="1" parent="1">
          <mxGeometry x="400" y="720" width="85" height="60" as="geometry" />
        </mxCell>
        <mxCell id="qkL3Egb8Z34TwKV7hk0--10" value="Manage User" style="ellipse;whiteSpace=wrap;html=1;" vertex="1" parent="1">
          <mxGeometry x="383.75" y="810" width="117.5" height="40" as="geometry" />
        </mxCell>
        <mxCell id="qkL3Egb8Z34TwKV7hk0--11" value="Monitor System" style="ellipse;whiteSpace=wrap;html=1;" vertex="1" parent="1">
          <mxGeometry x="382.5" y="860" width="120" height="40" as="geometry" />
        </mxCell>
        <mxCell id="qkL3Egb8Z34TwKV7hk0--12" value="Billing" style="ellipse;whiteSpace=wrap;html=1;" vertex="1" parent="1">
          <mxGeometry x="395" y="510" width="90" height="60" as="geometry" />
        </mxCell>
        <mxCell id="qkL3Egb8Z34TwKV7hk0--13" value="Notification" style="ellipse;whiteSpace=wrap;html=1;" vertex="1" parent="1">
          <mxGeometry x="400" y="650" width="80" height="60" as="geometry" />
        </mxCell>
        <mxCell id="qkL3Egb8Z34TwKV7hk0--14" value="Feedback / Rating" style="ellipse;whiteSpace=wrap;html=1;" vertex="1" parent="1">
          <mxGeometry x="395" y="580" width="90" height="60" as="geometry" />
        </mxCell>
        <mxCell id="qkL3Egb8Z34TwKV7hk0--15" style="edgeStyle=orthogonalEdgeStyle;rounded=0;orthogonalLoop=1;jettySize=auto;html=1;exitX=0.5;exitY=1;exitDx=0;exitDy=0;" edge="1" parent="1" source="qkL3Egb8Z34TwKV7hk0--2" target="qkL3Egb8Z34TwKV7hk0--2">
          <mxGeometry relative="1" as="geometry" />
        </mxCell>
        <mxCell id="qkL3Egb8Z34TwKV7hk0--16" value="Passenger" style="shape=umlActor;verticalLabelPosition=bottom;verticalAlign=top;html=1;outlineConnect=0;strokeColor=#009900;" vertex="1" parent="1">
          <mxGeometry x="80" y="380" width="30" height="60" as="geometry" />
        </mxCell>
        <mxCell id="qkL3Egb8Z34TwKV7hk0--17" value="Driver" style="shape=umlActor;verticalLabelPosition=bottom;verticalAlign=top;html=1;outlineConnect=0;strokeColor=#004C99;" vertex="1" parent="1">
          <mxGeometry x="740" y="380" width="30" height="60" as="geometry" />
        </mxCell>
        <mxCell id="qkL3Egb8Z34TwKV7hk0--18" value="Admin" style="shape=umlActor;verticalLabelPosition=bottom;verticalAlign=top;html=1;outlineConnect=0;strokeColor=#FF8000;" vertex="1" parent="1">
          <mxGeometry x="80" y="830" width="30" height="60" as="geometry" />
        </mxCell>
        <mxCell id="qkL3Egb8Z34TwKV7hk0--22" value="" style="endArrow=none;html=1;rounded=0;strokeColor=#FF8000;" edge="1" parent="1">
          <mxGeometry width="50" height="50" relative="1" as="geometry">
            <mxPoint x="360" y="880" as="sourcePoint" />
            <mxPoint x="360.38" y="190" as="targetPoint" />
          </mxGeometry>
        </mxCell>
        <mxCell id="qkL3Egb8Z34TwKV7hk0--23" value="" style="endArrow=none;html=1;rounded=0;entryX=0.5;entryY=0.5;entryDx=0;entryDy=0;entryPerimeter=0;strokeColor=#FF8000;" edge="1" parent="1" target="qkL3Egb8Z34TwKV7hk0--18">
          <mxGeometry width="50" height="50" relative="1" as="geometry">
            <mxPoint x="360" y="860" as="sourcePoint" />
            <mxPoint x="460" y="770" as="targetPoint" />
          </mxGeometry>
        </mxCell>
        <mxCell id="qkL3Egb8Z34TwKV7hk0--25" value="" style="endArrow=classic;html=1;rounded=0;entryX=0;entryY=0.5;entryDx=0;entryDy=0;strokeColor=#FF8000;" edge="1" parent="1" target="qkL3Egb8Z34TwKV7hk0--3">
          <mxGeometry width="50" height="50" relative="1" as="geometry">
            <mxPoint x="360" y="190" as="sourcePoint" />
            <mxPoint x="460" y="190" as="targetPoint" />
          </mxGeometry>
        </mxCell>
        <mxCell id="qkL3Egb8Z34TwKV7hk0--27" value="" style="endArrow=classic;html=1;rounded=0;entryX=0;entryY=0.5;entryDx=0;entryDy=0;strokeColor=#FF8000;" edge="1" parent="1" target="qkL3Egb8Z34TwKV7hk0--7">
          <mxGeometry width="50" height="50" relative="1" as="geometry">
            <mxPoint x="360" y="400" as="sourcePoint" />
            <mxPoint x="460" y="420" as="targetPoint" />
          </mxGeometry>
        </mxCell>
        <mxCell id="qkL3Egb8Z34TwKV7hk0--30" value="" style="endArrow=classic;html=1;rounded=0;entryX=0;entryY=0.5;entryDx=0;entryDy=0;strokeColor=#FF8000;" edge="1" parent="1" target="qkL3Egb8Z34TwKV7hk0--12">
          <mxGeometry width="50" height="50" relative="1" as="geometry">
            <mxPoint x="360" y="540" as="sourcePoint" />
            <mxPoint x="460" y="540" as="targetPoint" />
          </mxGeometry>
        </mxCell>
        <mxCell id="qkL3Egb8Z34TwKV7hk0--31" value="" style="endArrow=classic;html=1;rounded=0;entryX=0;entryY=0.5;entryDx=0;entryDy=0;strokeColor=#FF8000;" edge="1" parent="1" target="qkL3Egb8Z34TwKV7hk0--14">
          <mxGeometry width="50" height="50" relative="1" as="geometry">
            <mxPoint x="360" y="610" as="sourcePoint" />
            <mxPoint x="460" y="660" as="targetPoint" />
          </mxGeometry>
        </mxCell>
        <mxCell id="qkL3Egb8Z34TwKV7hk0--32" value="" style="endArrow=classic;html=1;rounded=0;entryX=0;entryY=0.5;entryDx=0;entryDy=0;strokeColor=#FF8000;" edge="1" parent="1" target="qkL3Egb8Z34TwKV7hk0--13">
          <mxGeometry width="50" height="50" relative="1" as="geometry">
            <mxPoint x="360" y="680" as="sourcePoint" />
            <mxPoint x="460" y="660" as="targetPoint" />
          </mxGeometry>
        </mxCell>
        <mxCell id="qkL3Egb8Z34TwKV7hk0--33" value="" style="endArrow=classic;html=1;rounded=0;entryX=0;entryY=0.5;entryDx=0;entryDy=0;strokeColor=#FF8000;" edge="1" parent="1" target="qkL3Egb8Z34TwKV7hk0--9">
          <mxGeometry width="50" height="50" relative="1" as="geometry">
            <mxPoint x="360" y="750" as="sourcePoint" />
            <mxPoint x="460" y="660" as="targetPoint" />
          </mxGeometry>
        </mxCell>
        <mxCell id="qkL3Egb8Z34TwKV7hk0--34" value="" style="endArrow=classic;html=1;rounded=0;entryX=0;entryY=0.5;entryDx=0;entryDy=0;strokeColor=#FF8000;" edge="1" parent="1" target="qkL3Egb8Z34TwKV7hk0--10">
          <mxGeometry width="50" height="50" relative="1" as="geometry">
            <mxPoint x="360" y="830" as="sourcePoint" />
            <mxPoint x="460" y="770" as="targetPoint" />
          </mxGeometry>
        </mxCell>
        <mxCell id="qkL3Egb8Z34TwKV7hk0--36" value="" style="endArrow=none;html=1;rounded=0;strokeColor=#00CC00;" edge="1" parent="1">
          <mxGeometry width="50" height="50" relative="1" as="geometry">
            <mxPoint x="220" y="770" as="sourcePoint" />
            <mxPoint x="220" y="160" as="targetPoint" />
          </mxGeometry>
        </mxCell>
        <mxCell id="qkL3Egb8Z34TwKV7hk0--38" value="" style="endArrow=none;html=1;rounded=0;strokeColor=#004C99;" edge="1" parent="1">
          <mxGeometry width="50" height="50" relative="1" as="geometry">
            <mxPoint x="610" y="750" as="sourcePoint" />
            <mxPoint x="610" y="160" as="targetPoint" />
          </mxGeometry>
        </mxCell>
        <mxCell id="qkL3Egb8Z34TwKV7hk0--39" value="" style="endArrow=classic;html=1;rounded=0;entryX=0;entryY=0;entryDx=0;entryDy=0;strokeColor=#00CC00;" edge="1" parent="1" target="qkL3Egb8Z34TwKV7hk0--3">
          <mxGeometry width="50" height="50" relative="1" as="geometry">
            <mxPoint x="220" y="160" as="sourcePoint" />
            <mxPoint x="640" y="340" as="targetPoint" />
          </mxGeometry>
        </mxCell>
        <mxCell id="qkL3Egb8Z34TwKV7hk0--40" value="" style="endArrow=classic;html=1;rounded=0;entryX=1;entryY=0;entryDx=0;entryDy=0;strokeColor=#004C99;" edge="1" parent="1" target="qkL3Egb8Z34TwKV7hk0--3">
          <mxGeometry width="50" height="50" relative="1" as="geometry">
            <mxPoint x="610" y="160" as="sourcePoint" />
            <mxPoint x="460" y="170" as="targetPoint" />
          </mxGeometry>
        </mxCell>
        <mxCell id="qkL3Egb8Z34TwKV7hk0--41" value="" style="endArrow=classic;html=1;rounded=0;entryX=0;entryY=0.5;entryDx=0;entryDy=0;strokeColor=#00CC00;" edge="1" parent="1" target="qkL3Egb8Z34TwKV7hk0--5">
          <mxGeometry width="50" height="50" relative="1" as="geometry">
            <mxPoint x="220" y="255" as="sourcePoint" />
            <mxPoint x="460" y="240" as="targetPoint" />
          </mxGeometry>
        </mxCell>
        <mxCell id="qkL3Egb8Z34TwKV7hk0--43" value="" style="endArrow=classic;html=1;rounded=0;entryX=0;entryY=1;entryDx=0;entryDy=0;strokeColor=#00CC00;" edge="1" parent="1" target="qkL3Egb8Z34TwKV7hk0--7">
          <mxGeometry width="50" height="50" relative="1" as="geometry">
            <mxPoint x="220" y="421" as="sourcePoint" />
            <mxPoint x="460" y="310" as="targetPoint" />
          </mxGeometry>
        </mxCell>
        <mxCell id="qkL3Egb8Z34TwKV7hk0--45" value="" style="endArrow=classic;html=1;rounded=0;entryX=0;entryY=1;entryDx=0;entryDy=0;strokeColor=#00CC00;" edge="1" parent="1" target="qkL3Egb8Z34TwKV7hk0--12">
          <mxGeometry width="50" height="50" relative="1" as="geometry">
            <mxPoint x="220" y="561" as="sourcePoint" />
            <mxPoint x="460" y="520" as="targetPoint" />
          </mxGeometry>
        </mxCell>
        <mxCell id="qkL3Egb8Z34TwKV7hk0--46" value="" style="endArrow=classic;html=1;rounded=0;entryX=0;entryY=1;entryDx=0;entryDy=0;strokeColor=#00CC00;" edge="1" parent="1" target="qkL3Egb8Z34TwKV7hk0--14">
          <mxGeometry width="50" height="50" relative="1" as="geometry">
            <mxPoint x="220" y="631" as="sourcePoint" />
            <mxPoint x="460" y="650" as="targetPoint" />
          </mxGeometry>
        </mxCell>
        <mxCell id="qkL3Egb8Z34TwKV7hk0--47" value="" style="endArrow=classic;html=1;rounded=0;entryX=0;entryY=1;entryDx=0;entryDy=0;strokeColor=#00CC00;" edge="1" parent="1" target="qkL3Egb8Z34TwKV7hk0--13">
          <mxGeometry width="50" height="50" relative="1" as="geometry">
            <mxPoint x="220" y="700" as="sourcePoint" />
            <mxPoint x="460" y="650" as="targetPoint" />
          </mxGeometry>
        </mxCell>
        <mxCell id="qkL3Egb8Z34TwKV7hk0--48" value="" style="endArrow=classic;html=1;rounded=0;strokeColor=#00CC00;" edge="1" parent="1">
          <mxGeometry width="50" height="50" relative="1" as="geometry">
            <mxPoint x="220" y="770" as="sourcePoint" />
            <mxPoint x="410" y="770" as="targetPoint" />
          </mxGeometry>
        </mxCell>
        <mxCell id="qkL3Egb8Z34TwKV7hk0--49" value="" style="endArrow=classic;html=1;rounded=0;exitX=0.5;exitY=0.5;exitDx=0;exitDy=0;exitPerimeter=0;strokeColor=#009900;" edge="1" parent="1" source="qkL3Egb8Z34TwKV7hk0--16">
          <mxGeometry width="50" height="50" relative="1" as="geometry">
            <mxPoint x="390" y="380" as="sourcePoint" />
            <mxPoint x="220" y="410" as="targetPoint" />
          </mxGeometry>
        </mxCell>
        <mxCell id="qkL3Egb8Z34TwKV7hk0--52" value="" style="endArrow=classic;html=1;rounded=0;entryX=1;entryY=0.5;entryDx=0;entryDy=0;strokeColor=#004C99;" edge="1" parent="1" target="qkL3Egb8Z34TwKV7hk0--4">
          <mxGeometry width="50" height="50" relative="1" as="geometry">
            <mxPoint x="610" y="265" as="sourcePoint" />
            <mxPoint x="440" y="100" as="targetPoint" />
          </mxGeometry>
        </mxCell>
        <mxCell id="qkL3Egb8Z34TwKV7hk0--53" value="" style="endArrow=classic;html=1;rounded=0;entryX=1;entryY=0.5;entryDx=0;entryDy=0;strokeColor=#004C99;" edge="1" parent="1" target="qkL3Egb8Z34TwKV7hk0--6">
          <mxGeometry width="50" height="50" relative="1" as="geometry">
            <mxPoint x="610" y="330" as="sourcePoint" />
            <mxPoint x="440" y="450" as="targetPoint" />
          </mxGeometry>
        </mxCell>
        <mxCell id="qkL3Egb8Z34TwKV7hk0--54" value="" style="endArrow=classic;html=1;rounded=0;entryX=1;entryY=0.5;entryDx=0;entryDy=0;strokeColor=#004C99;" edge="1" parent="1" target="qkL3Egb8Z34TwKV7hk0--7">
          <mxGeometry width="50" height="50" relative="1" as="geometry">
            <mxPoint x="610" y="400" as="sourcePoint" />
            <mxPoint x="440" y="450" as="targetPoint" />
          </mxGeometry>
        </mxCell>
        <mxCell id="qkL3Egb8Z34TwKV7hk0--55" value="" style="endArrow=classic;html=1;rounded=0;entryX=1;entryY=0.5;entryDx=0;entryDy=0;strokeColor=#004C99;" edge="1" parent="1" target="qkL3Egb8Z34TwKV7hk0--8">
          <mxGeometry width="50" height="50" relative="1" as="geometry">
            <mxPoint x="610" y="470" as="sourcePoint" />
            <mxPoint x="530" y="480" as="targetPoint" />
          </mxGeometry>
        </mxCell>
        <mxCell id="qkL3Egb8Z34TwKV7hk0--56" value="" style="endArrow=classic;html=1;rounded=0;entryX=1;entryY=0.5;entryDx=0;entryDy=0;strokeColor=#004C99;" edge="1" parent="1" target="qkL3Egb8Z34TwKV7hk0--12">
          <mxGeometry width="50" height="50" relative="1" as="geometry">
            <mxPoint x="610" y="540" as="sourcePoint" />
            <mxPoint x="530" y="550" as="targetPoint" />
          </mxGeometry>
        </mxCell>
        <mxCell id="qkL3Egb8Z34TwKV7hk0--57" value="" style="endArrow=classic;html=1;rounded=0;entryX=1;entryY=0.5;entryDx=0;entryDy=0;strokeColor=#004C99;" edge="1" parent="1" target="qkL3Egb8Z34TwKV7hk0--14">
          <mxGeometry width="50" height="50" relative="1" as="geometry">
            <mxPoint x="610" y="610" as="sourcePoint" />
            <mxPoint x="530" y="610" as="targetPoint" />
          </mxGeometry>
        </mxCell>
        <mxCell id="qkL3Egb8Z34TwKV7hk0--58" value="" style="endArrow=classic;html=1;rounded=0;entryX=1;entryY=0.5;entryDx=0;entryDy=0;strokeColor=#004C99;" edge="1" parent="1" target="qkL3Egb8Z34TwKV7hk0--13">
          <mxGeometry width="50" height="50" relative="1" as="geometry">
            <mxPoint x="610" y="680" as="sourcePoint" />
            <mxPoint x="530" y="610" as="targetPoint" />
          </mxGeometry>
        </mxCell>
        <mxCell id="qkL3Egb8Z34TwKV7hk0--59" value="" style="endArrow=classic;html=1;rounded=0;entryX=1;entryY=0.5;entryDx=0;entryDy=0;strokeColor=#004C99;" edge="1" parent="1" target="qkL3Egb8Z34TwKV7hk0--9">
          <mxGeometry width="50" height="50" relative="1" as="geometry">
            <mxPoint x="610" y="750" as="sourcePoint" />
            <mxPoint x="530" y="680" as="targetPoint" />
          </mxGeometry>
        </mxCell>
        <mxCell id="qkL3Egb8Z34TwKV7hk0--60" value="" style="endArrow=classic;html=1;rounded=0;exitX=0.5;exitY=0.5;exitDx=0;exitDy=0;exitPerimeter=0;strokeColor=#004C99;" edge="1" parent="1" source="qkL3Egb8Z34TwKV7hk0--17">
          <mxGeometry width="50" height="50" relative="1" as="geometry">
            <mxPoint x="630" y="510" as="sourcePoint" />
            <mxPoint x="610" y="410" as="targetPoint" />
          </mxGeometry>
        </mxCell>
        <mxCell id="qkL3Egb8Z34TwKV7hk0--61" value="" style="endArrow=classic;html=1;rounded=0;entryX=0;entryY=0.5;entryDx=0;entryDy=0;strokeColor=#FF8000;" edge="1" parent="1" target="qkL3Egb8Z34TwKV7hk0--11">
          <mxGeometry width="50" height="50" relative="1" as="geometry">
            <mxPoint x="360" y="880" as="sourcePoint" />
            <mxPoint x="540" y="880" as="targetPoint" />
          </mxGeometry>
        </mxCell>
        <mxCell id="qkL3Egb8Z34TwKV7hk0--63" value="&lt;h1&gt;&lt;font style=&quot;font-size: 14px;&quot;&gt;Car rental system&lt;/font&gt;&lt;/h1&gt;" style="text;html=1;strokeColor=none;fillColor=none;spacing=5;spacingTop=-20;whiteSpace=wrap;overflow=hidden;rounded=0;strokeWidth=0;" vertex="1" parent="1">
          <mxGeometry x="190" y="80" width="140" height="40" as="geometry" />
        </mxCell>
      </root>
    </mxGraphModel>
  </diagram>
</mxfile>
